PathFileType	4	(X/Y/Z)	D:\TRACE\v60_Jaco2_6-2-23\JustBodyDRS_Motion2_8-platform.trc
DataRate	CameraRate	NumFrames	NumMarkers	Units	OrigDataRate	OrigDataStartFrame	OrigNumFrames
100.00	100.00	      42	5	mm	100.00	6050	      6914
Frame#	Time	Left_Front			Right_Front			Left_Aft			Right_Aft			Post			
		X1	Y1	Z1	X2	Y2	Z2	X3	Y3	Z3	X4	Y4	Z4	X5	Y5	Z5	

6050	60.490	-764.47302	21.63094	-636.11145	805.63928	23.20316	-641.15582	-672.65198	-1.34576	499.03186	769.81964	-2.45158	507.99762	21.81838	1327.11609	-934.31213	
6051	60.500	-763.12402	23.27630	-635.75201	806.72595	24.60887	-640.50702	-671.65533	-2.84287	499.26453	770.44910	-3.66324	508.43701	22.99805	1329.44775	-931.29126	
6052	60.510	-762.59692	24.63199	-635.13165	807.29761	26.18763	-640.13269	-670.71741	-3.93698	499.57471	771.20349	-4.97440	508.75259	23.37808	1331.82385	-928.00635	
6053	60.520	-761.54169	25.88665	-634.60992	808.27209	27.93224	-639.83228	-669.77057	-5.12488	500.14597	772.63116	-5.85562	509.29645	24.59211	1333.96912	-924.63867	
6054	60.530	-761.14758	28.58541	-634.25562	809.35712	29.66771	-639.23859	-668.99286	-5.91818	500.29153	773.08069	-7.13491	509.50470	25.43169	1336.40100	-920.81006	
6055	60.540	-760.27155	29.82227	-633.91180	809.91290	30.99263	-638.89960	-667.82947	-7.16682	500.80219	773.49164	-8.38624	509.73853	26.04726	1338.32483	-917.21478	
6056	60.550	-759.54932	31.16968	-633.49390	810.63983	32.41033	-638.64496	-667.13885	-8.19462	501.14700	774.87195	-9.32363	510.07693	26.54153	1340.52808	-912.99707	
6057	60.560	-758.60956	32.67372	-633.26025	811.42596	33.93404	-638.13556	-666.58307	-9.33462	501.49231	775.52008	-10.58807	510.44382	27.56692	1342.24646	-908.74170	
6058	60.570	-757.75537	34.03955	-632.75104	812.10754	35.06726	-637.82483	-665.81415	-10.14398	501.67374	775.80865	-11.64764	510.79987	28.16848	1344.29272	-904.70911	
6059	60.580	-757.07599	35.48545	-632.19421	812.94678	36.62948	-637.37646	-664.92535	-11.23751	501.99570	776.75348	-12.39692	511.09381	28.93959	1346.20374	-900.64783	
6060	60.590	-756.54413	36.99650	-632.01343	813.59595	38.19153	-637.08313	-664.49213	-12.00246	502.13950	777.79279	-13.22194	511.34787	29.73302	1348.31995	-897.53271	
6061	60.600	-755.82269	38.27697	-631.49152	814.45825	39.26517	-636.79907	-663.79266	-13.19385	502.36105	778.17889	-14.31730	511.54831	30.11175	1350.28528	-894.88672	
6062	60.610	-755.24792	39.55713	-631.11353	815.00256	40.74398	-636.27283	-663.34790	-14.03373	502.71472	778.31604	-15.52237	511.82336	31.11045	1352.07214	-892.47107	
6063	60.620	-754.64728	41.08126	-630.90430	815.57990	42.09039	-635.93207	-662.41498	-15.17909	503.06281	779.53571	-16.37978	512.13232	31.84000	1354.21948	-890.59143	
6064	60.630	-753.88336	42.40081	-630.35223	816.13129	43.28412	-635.40405	-662.13177	-15.79973	503.10986	780.11798	-17.49337	512.33466	32.54069	1356.03381	-888.45984	
6065	60.640	-753.36029	43.97568	-630.02484	816.63385	44.98883	-635.00403	-661.31653	-16.99430	503.60297	780.57605	-18.66998	512.62305	32.93585	1358.08545	-886.18500	
6066	60.650	-752.76685	45.42816	-629.53033	817.34503	46.41362	-634.54102	-660.96002	-17.78603	503.85193	781.10071	-19.71032	513.03082	33.86092	1359.95544	-883.37750	
6067	60.660	-752.22968	46.44041	-629.13647	817.74194	47.43487	-634.34698	-660.39764	-18.89521	504.21118	781.30383	-20.48493	513.34009	34.39521	1361.72705	-880.47150	
6068	60.670	-751.84845	47.62524	-628.76678	818.26947	48.92226	-633.81549	-659.90942	-19.75225	504.34314	782.30267	-21.33191	513.44916	34.44683	1363.47534	-877.17255	
6069	60.680	-751.41083	49.17689	-628.56415	818.49243	49.97286	-633.62543	-659.47394	-20.67609	504.54922	782.64679	-22.24985	513.70111	34.85169	1364.92505	-873.65112	
6070	60.690	-751.23950	50.40609	-628.16412	818.95959	51.41332	-633.18646	-659.06555	-21.34339	504.82449	783.02399	-23.16483	513.97394	35.46274	1366.61182	-869.84241	
6071	60.700	-750.77881	51.49139	-627.85608	819.04315	52.37556	-632.96570	-658.77789	-22.21720	505.04996	783.01068	-23.88311	514.11041	35.75407	1368.14355	-865.90210	
6072	60.710	-750.63666	52.38280	-627.55591	819.60382	53.48515	-632.46014	-658.54956	-23.03519	505.24133	783.52740	-24.81317	514.23230	35.46217	1369.50781	-862.36462	
6073	60.720	-750.32904	53.42133	-627.22095	819.54779	54.29626	-632.27496	-658.53101	-23.52195	505.48090	783.33197	-25.96824	514.37915	35.69748	1371.04895	-859.35706	
6074	60.730	-750.31281	54.40665	-626.72626	819.82996	55.61743	-631.75623	-658.51318	-24.27762	505.72559	783.32385	-26.58184	514.76318	36.16632	1372.50098	-856.91357	
6075	60.740	-749.95697	55.67399	-626.25195	819.87195	56.93549	-631.61926	-658.24487	-25.60303	506.03964	783.46155	-27.77103	514.81403	36.51820	1374.26135	-854.86993	
6076	60.750	-749.94110	56.92042	-626.03485	820.07880	57.91933	-631.03931	-658.10883	-25.95022	506.22641	783.62451	-28.94595	514.91174	36.28156	1375.64270	-853.39453	
6077	60.760	-749.90839	57.97201	-625.69440	820.17816	58.74530	-630.76416	-658.08081	-26.47156	506.46411	783.79260	-29.45362	515.38232	36.51566	1377.15649	-851.83551	
6078	60.770	-749.98114	58.75423	-625.38159	820.01703	59.77544	-630.56836	-658.11780	-27.55326	506.65540	783.92487	-30.24951	515.46283	36.70982	1378.30334	-850.11011	
6079	60.780	-749.99731	59.27849	-625.06793	820.13263	60.72542	-630.11041	-658.24115	-28.22851	506.66602	783.86951	-30.96561	515.41547	37.14859	1379.42700	-848.07312	
6080	60.790	-750.02203	60.52923	-624.60693	819.86847	61.50845	-629.92590	-658.16553	-28.66561	506.83231	783.57825	-31.86091	515.31305	36.62226	1380.51111	-845.91083	
6081	60.800	-750.05231	61.80627	-624.50403	820.10095	62.32367	-629.75415	-658.05994	-29.21471	506.91077	783.72162	-32.56875	515.29700	36.54186	1381.65173	-843.68811	
6082	60.810	-750.22571	62.32240	-624.37366	820.03040	63.26805	-629.38910	-658.02899	-29.98663	507.06412	783.79413	-32.97563	515.69141	36.98735	1382.72192	-841.23779	
6083	60.820	-750.43976	62.82058	-623.97485	819.67340	63.96630	-629.12054	-658.29663	-30.58756	507.14975	783.68628	-33.24506	516.30768	36.38014	1383.68420	-839.01813	
6084	60.830	-750.75415	63.57066	-623.76245	819.14642	64.54791	-628.90991	-658.60010	-31.32063	507.43451	783.49255	-33.57894	516.81122	36.10905	1384.51501	-837.30139	
6085	60.840	-750.94257	64.46053	-623.51544	819.04541	65.42616	-628.55914	-658.73004	-31.64959	507.49985	783.29602	-34.09180	516.99524	35.66975	1385.83521	-835.42120	
6086	60.850	-751.26910	65.57121	-623.39233	818.73645	66.38304	-628.30469	-659.28937	-32.31560	507.76425	783.03729	-34.69218	516.99420	35.42170	1386.91589	-833.59119	
6087	60.860	-751.61847	66.28457	-623.13019	818.38312	67.07025	-628.12042	-659.58911	-32.88518	507.92331	782.45428	-35.56342	516.65619	34.70918	1387.76331	-832.19086	
6088	60.870	-751.91815	66.72559	-622.89453	818.11877	67.58913	-627.91101	-659.68170	-33.31095	508.10336	781.88763	-36.31249	516.54230	34.68518	1388.56860	-830.63257	
6089	60.880	-752.48059	67.18704	-622.37567	817.99524	67.99049	-627.61108	-660.08044	-33.92899	508.16504	781.44055	-36.85085	516.68927	34.50571	1389.40955	-829.15955	
6090	60.890	-752.49451	67.62761	-622.02509	817.56085	68.65240	-627.30750	-660.49414	-34.43958	508.16260	781.10638	-37.21911	516.93506	34.06382	1390.05164	-827.65155	
6091	60.900	-752.98920	68.18062	-621.92847	817.01965	69.35055	-627.31940	-660.81384	-34.68422	508.30804	780.87830	-37.45791	517.11761	33.82436	1390.69922	-826.25500	
